<?xml version="1.0" encoding="utf-8"?>
<!-- Generator: Adobe Illustrator 27.2.0, SVG Export Plug-In . SVG Version: 6.00 Build 0)  -->
<svg version="1.1" id="レイヤー_1" xmlns="http://www.w3.org/2000/svg" xmlns:xlink="http://www.w3.org/1999/xlink" x="0px"
	 y="0px" viewBox="0 0 898 150" style="enable-background:new 0 0 898 150;" xml:space="preserve">
<style type="text/css">
	.st0{fill:none;}
	.st1{fill:#FFFFFF;}
</style>
<rect class="st0" width="898" height="150"/>
<g>
	<g>
		<polygon class="st1" points="119.2,68.6 114.7,55.4 110.6,68.6 96.5,68.6 107.8,77.3 103.7,90.9 114.7,82.7 126.5,90.9 
			122.4,77.3 133.8,68.6 		"/>
		<path class="st1" d="M203,54.5c-0.5,1.8-0.5,3.6-0.5,5.9c-1.8-0.5-3.6-1.4-5-3.2c-1.4-1.4-2.7-3.2-3.2-5c1.8,0,4.1-0.5,5.9-0.5
			l7.3-7.3l-26.4,3.2l-46,46.9c-0.9,0.9-2.3,1.8-3.2,2.7c-10.9,8.2-26.4,7.3-36-2.7c-6.4-6.4-9.6-16.8-7.3-25.5l-15.5,15
			c1.8,8.2,5.9,15,11.8,21.4c8.2,8.2,19.1,12.7,30.9,12.7s22.8-4.6,30.9-12.7l39.1-39.1c0.5-1.8,0.5-3.6,0.5-5.9
			c1.8,0.5,3.6,1.4,5,3.2c1.4,1.4,2.7,3.2,3.2,5c-1.8,0-4.1,0.5-5.9,0.5l-39.1,39.1c-9.1,9.1-20.5,14.1-33.2,14.1s-24.6-5-33.2-14.1
			c-5.9-5.9-10-13.2-12.3-20.5L58.7,100c3.2,7.3,7.7,14.1,13.7,19.6c12.7,12.7,29.1,19.1,45.5,18.7c15.5-0.5,31.9-6.4,43.7-18.7
			L208,73.2l3.6-25.5L203,54.5z M185.7,60c0-3.2-0.5-6.4-1.4-8.6c-0.5-1.4-1.4-2.3-1.8-3.2c1.4,1.4,2.7,1.8,5,2.7
			c1.8,0.9,4.1,1.4,6.4,1.4C192.9,55.4,188.8,59.5,185.7,60z M193.9,68.6c0.9-3.2,5-7.3,8.2-8.2c0,4.6,1.4,9.1,3.6,11.8
			C203.4,69.1,198.9,68.6,193.9,68.6z"/>
		<path class="st1" d="M95.5,55.4c0,0,2.3-1.8,3.2-2.7c10.9-8.2,26.4-7.3,36,2.7c6.4,6.4,9.6,16.8,7.3,25.5l15-15
			c-1.8-8.2-5.9-15-11.8-21.4c-7.7-8.6-18.7-13.2-30-13.2S92.4,35.9,84.2,44L44.6,83.6c-0.5,1.8-0.5,3.6-0.5,5.9
			c-1.8-0.5-3.6-1.4-5-3.2c-1.4-1.4-2.7-3.2-3.2-5c1.8,0,4.1-0.5,5.9-0.5L81,41.8c9.1-9.1,20.5-14.1,33.2-14.1s24.6,5,33.2,14.1
			c5.9,5.9,10,13.2,12.3,20.5L172,50c-3.2-7.3-7.7-14.1-13.7-19.6c-11.8-12.7-28.2-19.1-45.5-18.7C97.4,12.2,81,18.1,69.2,30.4
			L23.6,76.8L20,103.2l7.3-7.3c0.5-1.8,0.5-3.6,0.5-5.9c1.8,0.5,3.6,1.4,5,3.2c1.4,1.4,2.7,3.2,3.2,5c-1.8,0-4.1,0.5-5.9,0.5
			l-7.3,7.3l26.4-3.6L95.5,55.4z M28.2,89.6c0-4.6-1.4-9.1-3.6-11.8c2.3,2.3,6.4,3.6,11.8,3.6C35.5,84.6,31.4,88.2,28.2,89.6z
			 M43.2,98.7c-1.8-0.5-4.6-0.9-6.4-0.9c0.9-3.2,5-7.3,8.2-8.2c0,3.2,0.5,6.4,1.4,8.6c0.5,1.4,1.4,2.3,1.8,3.2
			C46.9,100,44.6,99.1,43.2,98.7z"/>
	</g>
	<g>
		<path class="st1" d="M242.8,37.2h17.3v75.1h-17.3V37.2z"/>
		<path class="st1" d="M317,51.8h-17.3v60.1h-17.3V51.8h-16.8v-15H317V51.8z"/>
		<path class="st1" d="M400.3,111.9h-17.7L378,94.6h-17.3l-4.1,17.3h-17.3l19.6-75.1h21.8L400.3,111.9z M376.6,81.8l-3.2-15
			c-0.9-4.6-2.3-10.9-3.2-15.5l0,0c-0.9,4.6-2.3,11.4-3.2,15.5l-3.2,15H376.6z"/>
		<path class="st1" d="M453.1,94.6c0,6.4,0.5,12.7,0.5,17.7h-15l-0.9-6.8h-0.5c-2.3,3.2-7.3,7.7-15,7.7c-10.9,0-17.3-7.3-17.3-23.2
			V57.7h17.3v30c0,7.3,2.3,11.4,6.8,11.4c3.2,0,6.8-2.7,6.8-8.2V57.7h17.3V94.6L453.1,94.6z"/>
		<path class="st1" d="M465.8,47.2l16.8-5v15h11.4v12.3h-11.4v20.9c0,6.4,2.3,8.6,6.4,8.6c2.3,0,2.7,0,4.6-0.5v13.2
			c-2.3,0.9-5.9,1.4-10.5,1.4c-16.8,0-17.3-14.6-17.3-20.5V70h-6.4V57.7h6.4V47.2L465.8,47.2z"/>
		<path class="st1" d="M548.7,84.6c0,21.4-13.7,28.7-25.5,28.7c-15,0-25.5-10.5-25.5-28.2c0-18.7,10.9-28.7,25.9-28.7
			C539.1,56.3,548.7,68.2,548.7,84.6z M523.2,68.6c-6.4,0-8.6,8.2-8.6,15.9c0,9.1,2.3,15.9,8.6,15.9c5.5,0,8.2-7.3,8.2-15.9
			C531.4,76.8,529.6,68.6,523.2,68.6z"/>
		<path class="st1" d="M633.3,111.9h-16.8V81.4c0-6.8-1.8-11.4-6.4-11.4c-4.1,0-6.8,3.2-6.8,9.1v32.8h-16.8V80c0-5.5-1.4-10-6.4-10
			c-2.3,0-6.8,2.3-6.8,9.1v32.8h-16.8V75c0-6.4,0-12.3-0.5-17.3h14.6l0.9,6.8h0.5c2.3-3.2,7.3-7.7,15-7.7c6.4,0,11.4,3.2,13.7,8.2
			l0,0c2.3-3.2,6.8-8.2,15.5-8.2c10.9,0,16.8,7.7,16.8,22.8L633.3,111.9L633.3,111.9z"/>
		<path class="st1" d="M685.7,99.1c0,5,0,9.6,0.9,12.7h-15l-0.9-5.5h-0.5c-3.2,4.6-8.6,6.4-14.1,6.4c-10,0-16.4-7.3-16.4-16.8
			c0-14.6,12.7-20.5,29.1-20.9c0-4.1-1.8-6.8-8.6-6.8c-5.5,0-10,1.8-13.7,3.6l-3.2-10.9c3.2-2.3,10.9-4.6,20-4.6
			c18.2,0,22.8,11.4,22.8,23.7L685.7,99.1L685.7,99.1z M669.3,86.4c-6.8,0-13.2,2.3-13.2,8.2c0,4.6,2.7,6.4,5.9,6.4
			c3.2,0,7.3-2.3,7.3-7.7L669.3,86.4L669.3,86.4z"/>
		<path class="st1" d="M697.9,47.2l16.8-5v15h11.4v12.3h-11.4v20.9c0,6.4,2.3,8.6,6.4,8.6c2.3,0,2.7,0,4.6-0.5v13.2
			c-2.3,0.9-5.9,1.4-10.5,1.4c-16.8,0-17.3-14.6-17.3-20.5V70h-6.4V57.7h6.4L697.9,47.2L697.9,47.2z"/>
		<path class="st1" d="M742.1,51.3c-5.5,0-8.6-3.6-8.6-8.6c0-5.5,3.6-8.6,8.6-8.6c5.5,0,8.6,3.6,8.6,8.6S746.6,51.3,742.1,51.3z
			 M750.7,111.9h-17.3V57.7h17.3V111.9z"/>
		<path class="st1" d="M808.5,84.6c0,21.4-13.7,28.7-25.5,28.7c-15,0-25.5-10.5-25.5-28.2c0-18.7,10.9-28.7,25.9-28.7
			C799,56.3,808.5,68.2,808.5,84.6z M783.5,68.6c-6.4,0-8.6,8.2-8.6,15.9c0,9.1,2.3,15.9,8.6,15.9c5.5,0,8.2-7.3,8.2-15.9
			C791.2,76.8,789.4,68.6,783.5,68.6z"/>
		<path class="st1" d="M864.5,111.9h-17.3V80c0-5.9-1.8-10-6.4-10c-3.6,0-7.3,2.3-7.3,9.6v32.3h-17.3V75c0-6.4,0-12.3-0.5-17.3h15
			l0.9,6.8h0.5c2.3-3.6,7.3-7.7,15-7.7c11.4,0,17.7,8.2,17.7,22.8v32.3H864.5z"/>
	</g>
</g>
</svg>
